<svg width="574" height="206" viewBox="0 0 574 206" fill="none" xmlns="http://www.w3.org/2000/svg">
<path d="M28.4238 125.958L24.38 126L24.3965 147H0.396507L0.449974 63.8903H27.6045C35.1958 63.8903 41.9008 64.9605 47.7029 67.1174C53.505 69.2744 58.0865 72.6018 61.3972 77.1332C64.7246 81.6645 66.38 87.5001 66.38 94.6398C66.38 101.78 64.7915 107.565 61.6313 112.197C58.4711 116.845 54.0401 120.306 48.355 122.564C42.6699 124.821 36.0151 125.958 28.4406 125.958H28.4238ZM29.38 88H24.38V106H29.38C33.3261 106 36.6337 105.04 38.8074 103.552C40.9811 102.047 42.068 99.7397 42.068 96.5794C42.068 93.4192 40.9644 91.1285 38.7406 89.6738C36.5334 88.2191 33.2592 88 29.38 88Z" fill="#FFFCF5"/>
<path d="M72.3802 147L72.3968 64H100.137C107.41 64 113.831 64.9865 119.399 66.9429C124.967 68.8992 129.364 71.9089 132.558 75.9888C135.769 80.0519 137.357 85.2856 137.357 91.6562C137.357 94.3482 137.106 97.174 136.588 100.117C136.07 103.076 134.983 105.902 133.327 108.578C131.99 110.651 130.251 112.591 128.11 114.396C125.97 116.202 123.295 117.724 120.051 118.944L144.38 147H116.38L96.3801 122V147H72.3802ZM101.458 88H96.3801L96.3799 106H102.38C105.774 106 107.94 105.955 109.88 104.5C111.82 103.045 113.38 99.993 113.38 97C113.38 94.542 112.025 90.4857 109.935 89.332C107.845 88.1782 105.019 88 101.458 88Z" fill="#FFFCF5"/>
<path d="M143.38 105.605C143.38 97.2419 145.226 89.9425 148.919 83.6905C152.612 77.4386 157.686 72.5884 164.14 69.1563C170.594 65.708 177.946 64 186.197 64C194.448 64 201.95 65.7241 208.437 69.1563C214.925 72.5884 220.031 77.4386 223.774 83.6905C227.517 89.9425 229.38 97.258 229.38 105.605C229.38 113.951 227.567 121.025 223.957 127.245C220.348 133.465 215.307 138.315 208.853 141.779C202.399 145.26 194.93 147 186.447 147C177.963 147 170.461 145.26 163.973 141.779C157.486 138.299 152.429 133.449 148.819 127.245C145.21 121.025 143.397 113.823 143.397 105.605H143.38ZM186.313 125.908C190.173 125.908 193.516 125.134 196.344 123.571C199.172 122.008 201.351 119.817 202.898 116.965C204.428 114.113 205.194 110.809 205.194 107.039C205.194 103.043 204.362 99.6267 202.715 96.7746C201.068 93.9225 198.806 91.7311 195.928 90.1681C193.05 88.6212 189.807 87.8317 186.197 87.8317C182.587 87.8317 179.477 88.6051 176.649 90.1681C173.821 91.715 171.592 93.9225 169.978 96.7746C168.365 99.6267 167.566 103.043 167.566 107.039C167.566 110.809 168.348 114.129 169.929 116.965C171.509 119.817 173.705 122.008 176.532 123.571C179.36 125.134 182.621 125.908 186.33 125.908H186.313Z" fill="#FFFCF5"/>
<path d="M286.38 88V64H351.38V88H331.38V147H307.38V88H286.38Z" fill="#FFFCF5"/>
<path d="M359.38 147V64H417.38V88H383.38V97H415.38V117H383.38V126H417.38V147H359.38Z" fill="#FFFCF5"/>
<path d="M483.626 121.879L485.38 142.438C482.252 143.926 478.976 145.05 475.584 145.827C472.175 146.603 468.518 147 464.612 147C456.405 147 448.942 145.463 442.256 142.389C435.571 139.315 430.243 134.72 426.304 128.605C422.349 122.49 420.38 114.854 420.38 105.665C420.38 96.4761 422.349 89.452 426.304 83.2212C430.259 77.007 435.587 72.2471 442.322 68.9417C449.057 65.6527 456.636 64 465.092 64C468.849 64 472.44 64.3305 475.882 64.9916C479.323 65.6527 482.451 66.5783 485.264 67.7682L483.51 91.1047C481.243 89.9974 478.794 89.1876 476.179 88.6587C473.565 88.1464 470.685 87.8819 467.558 87.8819C462.792 87.8819 458.672 88.6587 455.23 90.2123C451.788 91.7658 449.124 93.997 447.254 96.8728C445.384 99.765 444.441 103.17 444.441 107.087C444.441 111.004 445.334 114.59 447.138 117.367C448.942 120.143 451.54 122.259 454.948 123.697C458.357 125.134 462.445 125.862 467.21 125.862C470.421 125.862 473.366 125.515 476.064 124.804C478.761 124.093 481.293 123.118 483.626 121.862V121.879Z" fill="#FFFCF5"/>
<path d="M495.38 147V64H519.38V97H549.408V64H572.38L572.38 147H549.408V117.028H519.38V147H495.38Z" fill="#FFFCF5"/>
<path d="M234.38 117V97H286.38V117H234.38Z" fill="#FFFCF5"/>
<path d="M549.38 26V56H572.38V26H549.38ZM495.38 26V56H519.38V26H495.38Z" fill="#FFFCF5"/>
<path d="M286.38 2V19H351.38V2H286.38Z" fill="#FFFCF5"/>
<path d="M359.38 2V19H417.38V2H359.38Z" fill="#FFFCF5"/>
<path d="M476.862 2.94444C473.377 2.30965 469.741 2 465.937 2C457.374 2 449.7 3.54827 442.88 6.62933C436.479 9.54007 431.301 13.6585 427.38 19H485.274L486.38 5.54554C483.515 4.43078 480.348 3.56375 476.862 2.94444Z" fill="#FFFCF5"/>
<path d="M495.38 2V19H519.38V2H495.38ZM549.38 2V19H572.38V2H549.38Z" fill="#FFFCF5"/>
<path d="M0.380066 158V178H24.3801V158H0.380066Z" fill="#FFFCF5"/>
<path d="M126.656 158H99.8021L116.38 178H144.38L126.656 158ZM72.3801 158V178H96.3801V158H72.3801Z" fill="#FFFCF5"/>
<path d="M147.38 158C147.614 158.428 147.865 158.841 148.116 159.254C151.76 165.156 156.825 169.758 163.345 173.046C169.882 176.349 177.404 178 185.93 178C194.456 178 201.979 176.349 208.465 173.046C214.935 169.758 220 165.156 223.645 159.254C223.895 158.841 224.146 158.428 224.38 158H147.38Z" fill="#FFFCF5"/>
<path d="M0.380069 187L0.379974 204H24.3801V187H0.380069Z" fill="#FFFCF5"/>
<path d="M72.38 187V204H96.38V187H72.38ZM129.38 187H102.38L116.38 204H144.237L129.38 187Z" fill="#FFFCF5"/>
<path d="M149.38 187C152.949 192.112 157.713 196.135 163.689 199.1C170.27 202.367 177.845 204 186.431 204C195.016 204 202.591 202.367 209.122 199.1C215.048 196.135 219.811 192.112 223.38 187H149.38Z" fill="#FFFCF5"/>
<path d="M60.4828 39.3935C57.2015 34.8106 52.7 31.4284 46.9782 29.2638C41.24 27.0823 34.6444 26 27.1584 26H0.380066V56H24.3801V50H29.3801C33.2055 50 35.9635 50.6054 38.1401 52.0936C39.5581 53.0406 40.498 54.3427 40.9927 56H65.3801C65.2152 49.2694 63.5828 43.7396 60.4828 39.3935Z" fill="#FFFCF5"/>
<path d="M132.563 38.1082C129.368 33.9989 124.986 30.938 119.399 28.9594C113.829 26.9808 107.406 26 100.13 26H72.3801V56H96.3801V49.8782H101.434C104.997 49.8782 107.824 50.4532 109.915 51.6201C111.688 52.6009 112.708 54.0722 112.976 56H137.33C137.363 55.3067 137.38 54.6302 137.38 53.9538C137.38 47.5107 135.774 42.2345 132.563 38.1082Z" fill="#FFFCF5"/>
<path d="M224.072 45.6098C220.3 39.3886 215.154 34.5623 208.616 31.147C202.079 27.7157 194.602 26 186.204 26C177.806 26 170.463 27.7157 163.976 31.147C157.472 34.5623 152.359 39.3886 148.638 45.6098C146.727 48.8006 145.319 52.264 144.38 56H171.721C173.062 54.3966 174.688 53.0978 176.582 52.0716C179.432 50.5163 182.634 49.7467 186.204 49.7467C189.775 49.7467 193.11 50.5163 196.01 52.0716C197.938 53.0978 199.581 54.3966 200.939 56H228.38C227.425 52.264 226 48.8006 224.072 45.6098Z" fill="#FFFCF5"/>
<path d="M307.38 158V178H331.38V158H307.38Z" fill="#FFFCF5"/>
<path d="M382.88 158H377.38H359.38V178H417.38V158H382.88Z" fill="#FFFCF5"/>
<path d="M484.38 158L476.88 158C474.173 158.647 471.335 158.792 468.113 158.792C463.331 158.792 455.88 158 455.88 158L447.987 158C443.454 158 436.38 158 436.38 158H424.88C424.88 158 424.937 158.265 427.08 161.274C431.048 166.824 436.379 171.006 443.088 173.803C449.813 176.601 457.286 178 465.523 178C469.458 178 473.128 177.639 476.533 176.932C479.954 176.225 483.225 175.202 486.38 173.848L484.38 158Z" fill="#FFFCF5"/>
<path d="M549.38 158V178H572.38V158H549.38ZM495.38 178H519.38V158H495.38V178Z" fill="#FFFCF5"/>
<path d="M60.1816 15.2C56.9167 10.6833 52.4378 7.35 46.7447 5.21667C41.0353 3.06667 34.4727 2 27.0242 2H0.380066V19H62.3801C61.773 17.65 61.0347 16.3833 60.1816 15.2Z" fill="#FFFCF5"/>
<path d="M132.541 13.9721C129.348 9.90893 124.967 6.88247 119.382 4.92614C113.814 2.96981 107.393 2 100.12 2H72.3801V19.0552H135.484C134.732 17.1992 133.745 15.5104 132.541 13.9721Z" fill="#FFFCF5"/>
<path d="M208.064 6.88541C201.549 3.62847 194.099 2 185.73 2C177.361 2 170.044 3.62847 163.579 6.88541C157.699 9.82274 152.972 13.8711 149.38 19H222.38C218.738 13.8711 213.978 9.82274 208.064 6.88541Z" fill="#FFFCF5"/>
<path d="M307.38 187V204H331.38V187H307.38Z" fill="#FFFCF5"/>
<path d="M359.38 187V204H417.38V187H359.38Z" fill="#FFFCF5"/>
<path d="M485.479 187H429.38C433.002 191.998 437.492 195.916 442.866 198.718C449.626 202.239 457.137 204 465.416 204C469.372 204 473.061 203.546 476.482 202.656C479.921 201.766 483.209 200.479 486.38 198.775L485.479 187Z" fill="#FFFCF5"/>
<path d="M495.38 187V204H519.38V187H495.38ZM549.38 187V204H572.38V187H549.38Z" fill="#FFFCF5"/>
<path d="M424.38 55.7286C425.246 51.191 426.884 47.1206 429.277 43.5176C433.04 37.8492 438.111 33.5075 444.519 30.4925C450.912 27.5075 458.139 26 466.17 26C469.744 26 473.161 26.3015 476.436 26.9045C479.712 27.5075 482.687 28.3518 485.364 29.4372L483.695 50.7236C481.538 49.7136 479.208 48.9749 476.72 48.4925C474.232 48.0251 471.492 47.7839 468.516 47.7839C463.981 47.7839 460.06 48.4925 456.785 49.9095C453.51 51.3266 450.975 53.3618 449.196 55.9849" fill="#FFFCF5"/>
<path d="M307.38 56V49H286.38V26.0938H351.38V49H331.38V56" fill="#FFFCF5"/>
<path d="M359.38 56V26H417.38V49H383.38V56" fill="#FFFCF5"/>
</svg>
