<svg width="857" height="540" viewBox="0 0 857 540" fill="none" xmlns="http://www.w3.org/2000/svg">
<path d="M5.70042 188.057H854.197M5.70042 185.368H854.186M5.62314 182.374H854.108M5.68774 179.293H854.173M5.67743 176.299H854.174M5.66634 172.84H854.163M5.1048 169.1H853.601M4.96294 164.956H853.448M4.95204 160.812L853.448 160.8M5.15077 155.96H853.647M5.28254 150.912H853.768M5.34792 145.4H853.833M5.74282 139.289H854.228M5.31563 132.396H853.812M5.65623 124.989H854.152M6.20509 116.544H854.69M5.73272 107.523H854.218M5.93066 96.8287H854.427M6.81001 85.2536H855.306M8.26259 71.662H856.748M6.55857 55.9195H855.055M6.85578 38.1966H855.352M6.97566 16.013H855.461M2.39852 528.453L850.884 530.69M2.26597 486.102L850.751 488.327M2.39852 456.78L850.884 459.017M3.09083 434.633L851.576 436.87M3.12471 418.023L851.61 420.248M3.26579 405.042L851.751 407.279M2.93707 393.981L851.422 396.218M3.2004 385.107L851.686 387.332M3.2004 377.481L851.686 379.718M3.15542 370.978L851.641 373.203M3.2004 365.527L851.686 367.764M3.09083 360.687L851.576 362.923M3.04664 356.519L851.532 358.744M3.22339 352.693L851.709 354.93M3.26579 349.369L851.751 351.606M2.5505 346.093L851.036 348.318M2.57427 343.454L851.059 345.678M2.51998 340.996L851.005 343.233M2.59647 338.699L851.082 340.936M2.40942 336.829L850.906 339.066M2.39852 334.873L850.884 337.11M2.44093 332.966L850.937 335.203M2.4647 331.561L850.95 333.797M2.62956 329.923L851.115 332.159M2.62956 328.432L851.115 330.669M2.43082 326.892L850.916 329.129M2.1665 324.631L850.652 326.855M1.88117 325.828L850.366 328.065M1.96935 323.518L850.455 325.743M2.34324 322.626L850.828 324.851M335.15 538.317L415.431 324.863M440.635 325.12L518.198 539.502M466.357 324.998L699.926 538.781M489.526 323.824L852.599 522.549M515.261 323.909L852.6 457.513M539.937 324.545L852.599 419.453M564.516 323.885L853.469 397.012M589.226 324.02L853.469 379.999M615.091 323.873L853.468 367.96M640.759 324.203L852.468 357.962M665.38 323.984L852.445 351.154M690.62 324.02L852.314 345.055M715.417 324.02L852.203 341.082M739.875 324.02L851.797 336.951M764.882 324.02L852.467 333.235M789.57 324.02L852.071 330.485M815.304 324.02L852.04 327.821M839.75 324.02L852.116 325.303M387.847 325.279L154.289 539.062M364.69 324.117L1.61784 522.83M338.946 324.191L1.61784 457.807M314.269 324.826L1.61784 419.734M289.701 324.178L0.747803 397.293M264.99 324.313L0.747803 380.28M239.125 324.154L0.747803 368.24M213.457 324.484L1.74862 358.243M188.835 324.276L1.77061 351.434M163.597 324.313L1.89207 345.336M138.799 324.313L2.01274 341.363M114.342 324.313L2.41972 337.244M89.3344 324.313L1.74862 333.516M64.6342 324.313L2.13262 330.779M38.9018 324.313L2.17759 328.114M14.457 324.313L2.1019 325.584M153.068 1.84712L344.588 187.861M232.392 2.07976L368.584 188.485M312.276 1.5539L392.062 187.177M390.895 1.5539L417.883 185.441M73.8543 1.84712L318.25 187.678M5.13755 8.49631L294.321 187.678M5.13755 49.3071L269.897 188.228M5.13755 78.1768L244.065 187.996M6.07377 101.815L219.928 188.118M5.71017 119.697L194.205 188.094M5.68719 146.476L145.422 188.094M6.03889 134.534L168.877 187.837M5.68719 156.535L119.38 188.094M5.68719 164.895L94.4832 187.91M5.68719 172.742L69.619 187.91M5.68719 178.731L45.5799 187.91M5.71017 184.794L20.7167 187.911M708.233 0.783124L516.724 186.81M628.921 1.02806L492.729 187.433M549.035 0.502197L469.249 186.125M470.417 0.502197L443.429 184.39M787.457 0.783124L543.051 186.614M856.176 7.43232L566.981 186.614M856.176 48.2554L591.416 187.176M856.175 77.1251L617.248 186.944M855.239 100.763L641.385 187.066M855.603 118.645L667.097 187.042M855.624 145.425L715.889 187.042M855.272 133.483L692.434 186.785M855.625 155.484L741.932 187.042M855.625 163.844L766.829 186.859M855.625 171.69L791.693 186.858M855.625 177.679L815.721 186.858M855.602 183.742L840.584 186.859" stroke="#EC53B0" stroke-width="1.06925" stroke-miterlimit="10"/>
</svg>
