<svg width="36" height="36" viewBox="0 0 36 36" fill="none" xmlns="http://www.w3.org/2000/svg">
<path id="Vector" d="M10.651 0.459961H25.351C30.951 0.459961 35.501 5.00996 35.501 10.61V25.31C35.501 28.0019 34.4316 30.5836 32.5281 32.4871C30.6246 34.3906 28.0429 35.46 25.351 35.46H10.651C5.05098 35.46 0.500977 30.91 0.500977 25.31V10.61C0.500977 7.91801 1.57035 5.33632 3.47384 3.43283C5.37734 1.52933 7.95903 0.459961 10.651 0.459961ZM10.301 3.95996C8.63011 3.95996 7.02768 4.62371 5.8462 5.80519C4.66472 6.98667 4.00098 8.5891 4.00098 10.26V25.66C4.00098 29.1425 6.81848 31.96 10.301 31.96H25.701C27.3718 31.96 28.9743 31.2962 30.1558 30.1147C31.3372 28.9333 32.001 27.3308 32.001 25.66V10.26C32.001 6.77746 29.1835 3.95996 25.701 3.95996H10.301ZM27.1885 6.58496C27.7686 6.58496 28.325 6.81543 28.7353 7.22567C29.1455 7.6359 29.376 8.1923 29.376 8.77246C29.376 9.35262 29.1455 9.90902 28.7353 10.3193C28.325 10.7295 27.7686 10.96 27.1885 10.96C26.6083 10.96 26.0519 10.7295 25.6417 10.3193C25.2314 9.90902 25.001 9.35262 25.001 8.77246C25.001 8.1923 25.2314 7.6359 25.6417 7.22567C26.0519 6.81543 26.6083 6.58496 27.1885 6.58496ZM18.001 9.20996C20.3216 9.20996 22.5472 10.1318 24.1882 11.7728C25.8291 13.4137 26.751 15.6393 26.751 17.96C26.751 20.2806 25.8291 22.5062 24.1882 24.1471C22.5472 25.7881 20.3216 26.71 18.001 26.71C15.6803 26.71 13.4547 25.7881 11.8138 24.1471C10.1728 22.5062 9.25098 20.2806 9.25098 17.96C9.25098 15.6393 10.1728 13.4137 11.8138 11.7728C13.4547 10.1318 15.6803 9.20996 18.001 9.20996ZM18.001 12.71C16.6086 12.71 15.2732 13.2631 14.2887 14.2477C13.3041 15.2322 12.751 16.5676 12.751 17.96C12.751 19.3523 13.3041 20.6877 14.2887 21.6723C15.2732 22.6568 16.6086 23.21 18.001 23.21C19.3934 23.21 20.7287 22.6568 21.7133 21.6723C22.6979 20.6877 23.251 19.3523 23.251 17.96C23.251 16.5676 22.6979 15.2322 21.7133 14.2477C20.7287 13.2631 19.3934 12.71 18.001 12.71Z" fill="white"/>
</svg>
