<svg width="60" height="86" viewBox="0 0 60 86" fill="none" xmlns="http://www.w3.org/2000/svg">
<path fill-rule="evenodd" clip-rule="evenodd" d="M17.5504 0.460938H0.337891V68.1507H15.8098V47.3603H17.357C20.4514 47.3603 23.1268 46.9735 25.3831 46.1999C27.6394 45.3618 29.509 44.0725 30.9917 42.3319C32.5389 40.5913 33.6671 38.2705 34.3762 35.3695C34.5846 34.517 34.7624 33.6061 34.9095 32.6367V85.4608H50.3815V31.2122H59.6646V17.771H35.0488C34.4113 12.7984 32.9945 8.96239 30.7983 6.26292C27.7039 2.39493 23.288 0.460938 17.5504 0.460938ZM15.8098 33.919V13.9022H17.357C18.453 13.9022 19.1621 14.1923 19.4844 14.7725C19.8068 15.2882 19.9679 16.223 19.9679 17.5768V30.3412C19.9679 31.695 19.8068 32.6297 19.4844 33.1454C19.1621 33.6612 18.453 33.919 17.357 33.919H15.8098Z" fill="white"/>
</svg>
