<svg width="150" height="40" viewBox="0 0 150 40" fill="none" xmlns="http://www.w3.org/2000/svg">
<rect x="0.5" y="0.5" width="149" height="39" rx="15.5" fill="black"/>
<rect x="0.5" y="0.5" width="149" height="39" rx="15.5" stroke="#FFFCF5"/>
<path d="M19.18 28H17.98V14.04H23.46C24.66 14.04 25.58 14.38 26.22 15.06C26.8733 15.74 27.2 16.6933 27.2 17.92C27.2 19 26.9333 19.8733 26.4 20.54C25.88 21.2067 25.12 21.6067 24.12 21.74L27.56 28H26.22L22.88 21.82H19.18V28ZM23.46 20.8C24.26 20.8 24.8667 20.58 25.28 20.14C25.7067 19.6867 25.92 19.1133 25.92 18.42V17.46C25.92 16.78 25.7067 16.22 25.28 15.78C24.8667 15.3267 24.26 15.1 23.46 15.1H19.18V20.8H23.46ZM30.6948 28V14.04H38.8548V15.1H31.8948V20.38H38.5148V21.44H31.8948V26.94H38.8548V28H30.6948ZM51.2592 25.86H51.1992C50.9459 26.58 50.4659 27.16 49.7592 27.6C49.0659 28.0267 48.1792 28.24 47.0992 28.24C46.2326 28.24 45.4526 28.0867 44.7592 27.78C44.0659 27.4733 43.4726 27.0133 42.9792 26.4C42.4992 25.7867 42.1259 25.0333 41.8592 24.14C41.5926 23.2467 41.4592 22.2067 41.4592 21.02C41.4592 19.8467 41.5926 18.8133 41.8592 17.92C42.1259 17.0133 42.5059 16.26 42.9992 15.66C43.4926 15.0467 44.0926 14.5867 44.7992 14.28C45.5059 13.96 46.2992 13.8 47.1792 13.8C48.3792 13.8 49.3859 14.0733 50.1992 14.62C51.0126 15.1667 51.6326 15.8867 52.0592 16.78L51.0792 17.36C50.7326 16.5867 50.2259 15.98 49.5592 15.54C48.8926 15.1 48.0992 14.88 47.1792 14.88C46.4992 14.88 45.8859 15 45.3392 15.24C44.7926 15.48 44.3259 15.8267 43.9392 16.28C43.5526 16.7333 43.2526 17.2867 43.0392 17.94C42.8392 18.5933 42.7392 19.3333 42.7392 20.16V21.86C42.7392 23.54 43.1392 24.8467 43.9392 25.78C44.7526 26.7 45.8659 27.16 47.2792 27.16C47.8126 27.16 48.3126 27.0933 48.7792 26.96C49.2592 26.8133 49.6792 26.6 50.0392 26.32C50.3992 26.04 50.6792 25.6867 50.8792 25.26C51.0926 24.8333 51.1992 24.3333 51.1992 23.76V22.08H47.9392V21.04H52.3792V28H51.2592V25.86ZM55.1311 28V27H57.1711V15.04H55.1311V14.04H60.4111V15.04H58.3711V27H60.4111V28H55.1311ZM67.3441 28.24C66.1974 28.24 65.2374 28.0267 64.4641 27.6C63.7041 27.16 63.0507 26.58 62.5041 25.86L63.4041 25.12C63.8974 25.7733 64.4507 26.28 65.0641 26.64C65.6907 27 66.4641 27.18 67.3841 27.18C68.4641 27.18 69.2907 26.9267 69.8641 26.42C70.4507 25.9 70.7441 25.18 70.7441 24.26C70.7441 23.4067 70.4974 22.78 70.0041 22.38C69.5107 21.98 68.8174 21.6867 67.9241 21.5L66.6841 21.24C65.3507 20.9733 64.3841 20.5267 63.7841 19.9C63.1841 19.2733 62.8841 18.4733 62.8841 17.5C62.8841 16.8867 62.9907 16.3533 63.2041 15.9C63.4174 15.4333 63.7174 15.0467 64.1041 14.74C64.5041 14.4333 64.9774 14.2 65.5241 14.04C66.0841 13.88 66.6974 13.8 67.3641 13.8C68.4041 13.8 69.2841 13.9867 70.0041 14.36C70.7241 14.7333 71.3174 15.26 71.7841 15.94L70.8841 16.6C70.4974 16.04 70.0107 15.6133 69.4241 15.32C68.8507 15.0133 68.1441 14.86 67.3041 14.86C66.3041 14.86 65.5107 15.08 64.9241 15.52C64.3507 15.9467 64.0641 16.5933 64.0641 17.46C64.0641 18.2867 64.3241 18.8933 64.8441 19.28C65.3641 19.6667 66.0574 19.9467 66.9241 20.12L68.1641 20.38C69.5507 20.6867 70.5241 21.16 71.0841 21.8C71.6441 22.44 71.9241 23.24 71.9241 24.2C71.9241 25.48 71.5174 26.4733 70.7041 27.18C69.8907 27.8867 68.7707 28.24 67.3441 28.24ZM79.0378 15.1V28H77.8378V15.1H73.1578V14.04H83.7178V15.1H79.0378ZM87.305 28H86.105V14.04H91.585C92.785 14.04 93.705 14.38 94.345 15.06C94.9983 15.74 95.325 16.6933 95.325 17.92C95.325 19 95.0583 19.8733 94.525 20.54C94.005 21.2067 93.245 21.6067 92.245 21.74L95.685 28H94.345L91.005 21.82H87.305V28ZM91.585 20.8C92.385 20.8 92.9917 20.58 93.405 20.14C93.8317 19.6867 94.045 19.1133 94.045 18.42V17.46C94.045 16.78 93.8317 16.22 93.405 15.78C92.9917 15.3267 92.385 15.1 91.585 15.1H87.305V20.8H91.585ZM98.8198 28V14.04H106.98V15.1H100.02V20.38H106.64V21.44H100.02V26.94H106.98V28H98.8198ZM111.504 28H110.304V14.04H115.784C116.984 14.04 117.904 14.38 118.544 15.06C119.198 15.74 119.524 16.6933 119.524 17.92C119.524 19 119.258 19.8733 118.724 20.54C118.204 21.2067 117.444 21.6067 116.444 21.74L119.884 28H118.544L115.204 21.82H111.504V28ZM115.784 20.8C116.584 20.8 117.191 20.58 117.604 20.14C118.031 19.6867 118.244 19.1133 118.244 18.42V17.46C118.244 16.78 118.031 16.22 117.604 15.78C117.191 15.3267 116.584 15.1 115.784 15.1H111.504V20.8H115.784ZM131.759 28L130.239 23.66H124.299L122.779 28H121.579L126.519 14.04H128.059L133.019 28H131.759ZM127.299 15.18H127.219L124.599 22.62H129.919L127.299 15.18Z" fill="#FFFCF5"/>
</svg>
